<?xml version="1.0" standalone="no"?>
<!DOCTYPE svg PUBLIC "-//W3C//DTD SVG 20010904//EN"
 "http://www.w3.org/TR/2001/REC-SVG-20010904/DTD/svg10.dtd">
<svg version="1.0" xmlns="http://www.w3.org/2000/svg"
 width="500.000000pt" height="500.000000pt" viewBox="0 0 500.000000 500.000000"
 preserveAspectRatio="xMidYMid meet">
<metadata>
Created by potrace 1.11, written by Peter Selinger 2001-2013
</metadata>
<g transform="translate(0.000000,500.000000) scale(0.100000,-0.100000)"
fill="#000000" stroke="none">
<path d="M2204 4690 c-375 -57 -707 -195 -1014 -423 -122 -91 -346 -315 -437
-437 -298 -402 -443 -841 -443 -1340 0 -499 145 -938 443 -1340 91 -122 315
-346 437 -437 402 -298 841 -443 1340 -443 499 0 938 145 1340 443 122 91 346
315 437 437 298 402 443 841 443 1340 0 499 -145 938 -443 1340 -91 122 -315
346 -437 437 -311 230 -642 367 -1023 424 -175 25 -470 25 -643 -1z m-66
-1046 c147 -30 292 -113 402 -231 61 -64 110 -137 100 -146 -12 -11 -310 -217
-314 -217 -2 0 -15 19 -29 43 -73 125 -213 197 -382 197 -141 0 -236 -39 -330
-135 -103 -105 -150 -249 -142 -435 7 -171 58 -294 163 -396 125 -120 310
-156 481 -93 102 37 156 85 228 203 9 14 33 2 182 -86 l172 -102 -27 -50 c-39
-72 -154 -184 -246 -239 -85 -50 -221 -99 -325 -117 -82 -15 -241 -14 -321 0
-275 50 -528 254 -651 525 -62 138 -82 227 -83 380 -1 158 11 227 60 353 84
215 249 391 456 486 176 82 396 103 606 60z m1862 -889 l0 -185 -275 0 -275 0
0 -725 0 -725 -210 0 -210 0 -2 723 -3 722 -277 3 -278 2 0 185 0 185 765 0
765 0 0 -185z"/>
</g>
</svg>
